<svg width="71" height="71" viewBox="0 0 71 71" fill="none" xmlns="http://www.w3.org/2000/svg">
<path d="M69.8271 34.5361C69.5602 33.6611 69.1052 32.9129 68.5146 32.3048C68.0552 31.8104 67.4602 31.4429 66.7909 31.2636C67.1146 31.7754 67.4077 32.3661 67.6265 32.9961C67.8715 33.6392 68.029 34.3261 68.0771 35.0392C68.1121 35.3323 68.1296 35.6429 68.1296 35.9579C68.1296 36.2729 68.1121 36.5836 68.0771 36.8942C67.924 36.3911 67.714 35.9842 67.4558 35.6167C66.9177 34.8904 66.1959 34.3086 65.3559 33.9411C64.8352 33.7092 64.2709 33.5823 63.6759 33.5823C62.1621 33.5823 60.8409 34.3961 60.1277 35.6123C59.909 35.9711 59.734 36.3604 59.6027 36.7761C54.4315 28.1661 45.1259 22.4654 34.4859 22.4654C33.9434 22.4654 33.4052 22.4786 32.8715 22.5092C29.5333 22.5136 26.2346 22.9904 23.1108 23.8786C22.8396 21.9798 20.3458 18.1298 8.88335 18.1298L12.3833 29.1111C10.1652 30.9092 8.32772 33.0704 6.92772 35.5204L0.13335 35.6298C0.13335 35.6298 -0.6104 53.1298 4.50835 53.1298H6.87085C8.52897 55.9211 10.6683 58.2529 13.1927 60.0817L13.2583 70.6298H17.9833C23.7146 70.6298 26.3833 70.6298 26.3833 67.3486V65.6423C28.3565 66.0273 30.6271 66.2505 32.9458 66.2505C35.2646 66.2505 37.5352 66.0273 39.7315 65.6073L39.5084 67.3486C39.5084 70.6298 42.2208 70.6298 47.9958 70.6298H52.6334V60.1736C56.7109 57.3254 59.6902 53.1517 60.959 48.2867C61.2084 48.1686 61.4577 48.1817 61.7115 48.1817C61.9652 48.1817 62.2146 48.1686 62.464 48.138C63.5621 47.9367 64.564 47.508 65.4346 46.8998C66.5984 46.0773 67.5084 44.9136 68.0202 43.5529C68.1427 43.1461 68.2346 42.7173 68.2959 42.2754L68.3002 42.2317C69.2671 41.0854 69.9277 39.6504 70.1334 38.0711C70.1859 37.7036 70.2165 37.3229 70.2165 36.9379C70.2165 36.0761 70.0765 35.2492 69.8184 34.4748L69.8271 34.5361ZM15.4896 34.5361C17.3008 34.5361 18.7709 36.0061 18.7709 37.8173C18.7709 39.6286 17.3008 41.0986 15.4896 41.0986C13.6783 41.0986 12.2083 39.6286 12.2083 37.8173C12.2083 36.0061 13.6783 34.5361 15.4896 34.5361ZM25.8583 31.2548C25.6571 31.3204 25.4252 31.3598 25.1846 31.3598C24.3358 31.3598 23.6009 30.8786 23.2377 30.1742C23.1809 30.0079 23.1546 29.8329 23.1546 29.6492C23.1546 28.8179 23.7496 28.1267 24.5327 27.9736C27.0309 27.3567 29.8877 27.0067 32.8277 27.0067C32.994 27.0067 33.1558 27.0067 33.3221 27.0111C33.4358 27.0111 33.6021 27.0067 33.764 27.0067C36.704 27.0067 39.5565 27.3567 42.2909 28.0217C42.8421 28.1267 43.4371 28.8179 43.4371 29.6492C43.4371 29.8329 43.4065 30.0079 43.354 30.1698C43.0477 30.7342 42.4921 31.1454 41.8402 31.2504H41.1709C38.9309 30.6948 36.354 30.3754 33.7071 30.3754C33.6371 30.3754 33.5715 30.3754 33.5015 30.3754C33.4533 30.3754 33.3877 30.3754 33.3177 30.3754C30.6708 30.3754 28.0983 30.6948 25.6352 31.2986L25.8583 31.2548ZM63.9209 44.0736C63.3521 44.4892 62.674 44.7954 61.939 44.9442L61.3834 44.9486V44.3798C61.3834 44.3798 61.3834 43.4611 61.3834 43.0236C62.1052 43.5704 63.0196 43.8986 64.0084 43.8986H64.1002L63.9209 44.0736ZM64.2709 41.0986C64.1921 41.1117 64.0959 41.1161 64.004 41.1161C63.234 41.1161 62.5734 40.6654 62.2627 40.0136C62.0702 39.6461 61.9609 39.2261 61.9609 38.7754C61.9609 38.3248 62.0702 37.9048 62.2671 37.5373C62.5252 37.1786 62.954 36.9336 63.444 36.9336C63.7021 36.9336 63.9384 36.9992 64.1484 37.1173C64.9402 37.4236 65.4958 38.1848 65.4958 39.0773C65.5352 39.3486 65.5571 39.6636 65.5571 39.9786C65.5571 40.2936 65.5352 40.6042 65.4915 40.9104C65.2027 40.9629 64.8615 41.0154 64.5115 41.0154C64.4284 41.0154 64.3408 41.0111 64.2577 41.0067L64.2709 41.0986Z" fill="white"/>
<path d="M35.1343 13.7545H30.7593V13.0108H31.853V8.242H30.7593L33.1655 5.83575H34.0405V13.0108H35.1343V13.7545Z" fill="white"/>
<path d="M32.9465 3.91101C36.569 3.91101 39.509 6.85101 39.509 10.4735C39.509 14.096 36.569 17.036 32.9465 17.036C29.324 17.036 26.384 14.096 26.384 10.4735C26.384 6.85101 29.324 3.91101 32.9465 3.91101ZM32.9465 0.629761C27.5084 0.629761 23.1028 5.03539 23.1028 10.4735C23.1028 15.9116 27.5084 20.3173 32.9465 20.3173C38.3847 20.3173 42.7903 15.9116 42.7903 10.4735C42.7903 5.03539 38.3847 0.629761 32.9465 0.629761Z" fill="white"/>
</svg>
