<svg width="71" height="70" viewBox="0 0 71 70" fill="none" xmlns="http://www.w3.org/2000/svg">
<path d="M35.0604 64.1666C51.1687 64.1666 64.2271 51.1083 64.2271 35C64.2271 18.8917 51.1687 5.83331 35.0604 5.83331C18.9521 5.83331 5.89377 18.8917 5.89377 35C5.89377 51.1083 18.9521 64.1666 35.0604 64.1666Z" stroke="white" stroke-width="6"/>
<path d="M5.89377 30.3923C10.2904 28.3162 13.5422 28.027 15.6491 29.5246C18.8096 31.7712 19.2059 40.9267 26.3943 36.551C33.5827 32.1753 23.316 30.3923 25.5448 24.0537C27.7736 17.715 35.0725 22.6388 35.7982 15.6957C36.2818 11.0668 30.7449 9.29567 19.1874 10.3822" stroke="white" stroke-width="6"/>
<path d="M52.5605 11.6667C44.227 18.9417 41.3165 23.335 43.8289 24.8461C47.5974 27.1129 49.1965 23.9215 53.7952 24.8461C58.3939 25.7708 57.3981 32.0042 54.9793 32.0042C52.5605 32.0042 40.0333 30.4089 40.6643 37.7198C41.2952 45.0306 48.8303 46.113 48.8303 50.1975C48.8303 52.9205 47.1631 57.0879 43.8289 62.6999" stroke="white" stroke-width="6" stroke-linecap="round"/>
<path d="M8.96303 48.0178C10.2923 47.438 11.2915 47.013 11.9606 46.7426C17.571 44.4761 21.7339 43.9418 24.4492 45.1399C29.2508 47.2587 27.4048 51.5378 28.9088 53.1142C30.4126 54.6907 34.1681 54.232 34.1681 57.231C34.1681 59.2303 33.4966 61.4889 32.1534 64.0065" stroke="white" stroke-width="6" stroke-linecap="round"/>
</svg>
