<svg width="77" height="76" viewBox="0 0 77 76" fill="none" xmlns="http://www.w3.org/2000/svg">
<path d="M45.0604 7.4401C45.0604 4.98789 43.0724 3 40.6203 3L35.5005 3C33.0484 3 31.0604 4.98789 31.0604 7.4401C31.0604 9.46607 29.6732 11.2006 27.7886 11.9441C27.4904 12.0618 27.1946 12.1845 26.9014 12.312C25.0429 13.1205 22.8346 12.875 21.4014 11.4419C19.667 9.70751 16.855 9.70751 15.1207 11.4419L11.502 15.0606C9.76754 16.795 9.76754 19.607 11.502 21.3415C12.9351 22.7746 13.1806 24.983 12.3721 26.8416C12.2447 27.1346 12.1221 27.4301 12.0045 27.7282C11.261 29.6128 9.52646 31 7.50052 31C5.04832 31 3.06042 32.988 3.06042 35.4401L3.06042 40.5599C3.06042 43.012 5.04832 45 7.50052 45C9.52646 45 11.261 46.3871 12.0045 48.2718C12.1221 48.57 12.2447 48.8654 12.3721 49.1583C13.1806 51.0168 12.9351 53.2253 11.502 54.6586C9.76754 56.3928 9.76754 59.2051 11.502 60.9394L15.1207 64.558C16.855 66.2926 19.667 66.2926 21.4014 64.558C22.8346 63.1251 25.0429 62.8794 26.9015 63.6879C27.1946 63.8156 27.4904 63.9381 27.7886 64.0557C29.6732 64.7995 31.0604 66.5341 31.0604 68.5599C31.0604 71.012 33.0484 73 35.5005 73H40.6203C43.0724 73 45.0604 71.012 45.0604 68.5599C45.0604 66.5341 46.4475 64.7995 48.3322 64.0557C48.6304 63.9381 48.9262 63.8157 49.2191 63.6883C51.0776 62.8798 53.2858 63.1251 54.7187 64.5584C56.4529 66.2926 59.2648 66.2926 60.9991 64.5584L64.6184 60.939C66.3527 59.2048 66.3527 56.3932 64.6184 54.659C63.1852 53.2257 62.9398 51.0176 63.7483 49.1591C63.8761 48.8661 63.9986 48.57 64.1162 48.2718C64.8599 46.3874 66.5945 45 68.6203 45C71.0724 45 73.0604 43.012 73.0604 40.5599V35.4401C73.0604 32.988 71.0724 31 68.6203 31C66.5945 31 64.8599 29.6128 64.1162 27.7282C63.9986 27.4299 63.8761 27.134 63.7483 26.8408C62.9398 24.9824 63.1852 22.7742 64.6184 21.3412C66.3527 19.6069 66.3527 16.7951 64.6184 15.0609L60.9991 11.4418C59.2648 9.70747 56.4529 9.70747 54.7187 11.4418C53.2858 12.8748 51.0776 13.1203 49.2191 12.3118C48.9262 12.1844 48.6304 12.0617 48.3322 11.9441C46.4475 11.2006 45.0604 9.46604 45.0604 7.4401Z" stroke="white" stroke-width="6"/>
<path d="M52.0609 38C52.0609 45.7319 45.7927 52 38.0609 52C30.3289 52 24.0609 45.7319 24.0609 38C24.0609 30.268 30.3289 24 38.0609 24C45.7927 24 52.0609 30.268 52.0609 38Z" stroke="white" stroke-width="6"/>
</svg>
