<svg width="71" height="70" viewBox="0 0 71 70" fill="none" xmlns="http://www.w3.org/2000/svg">
<path d="M45.5604 52.5C44.8682 52.5 44.1915 52.7053 43.6159 53.0899C43.0404 53.4744 42.5918 54.0211 42.3268 54.6606C42.0619 55.3002 41.9926 56.0039 42.1277 56.6828C42.2627 57.3618 42.5961 57.9854 43.0856 58.4749C43.575 58.9644 44.1987 59.2977 44.8776 59.4327C45.5565 59.5678 46.2603 59.4985 46.8998 59.2336C47.5394 58.9687 48.086 58.5201 48.4706 57.9445C48.8552 57.3689 49.0604 56.6922 49.0604 56C49.0604 55.0717 48.6917 54.1815 48.0353 53.5251C47.3789 52.8687 46.4887 52.5 45.5604 52.5ZM24.5604 52.5H14.0604C13.1322 52.5 12.2419 52.8687 11.5856 53.5251C10.9292 54.1815 10.5604 55.0717 10.5604 56C10.5604 56.9283 10.9292 57.8185 11.5856 58.4749C12.2419 59.1313 13.1322 59.5 14.0604 59.5H24.5604C25.4887 59.5 26.3789 59.1313 27.0353 58.4749C27.6917 57.8185 28.0604 56.9283 28.0604 56C28.0604 55.0717 27.6917 54.1815 27.0353 53.5251C26.3789 52.8687 25.4887 52.5 24.5604 52.5ZM56.0604 52.5C55.3682 52.5 54.6915 52.7053 54.1159 53.0899C53.5404 53.4744 53.0918 54.0211 52.8268 54.6606C52.5619 55.3002 52.4926 56.0039 52.6277 56.6828C52.7627 57.3618 53.0961 57.9854 53.5855 58.4749C54.075 58.9644 54.6987 59.2977 55.3776 59.4327C56.0565 59.5678 56.7603 59.4985 57.3998 59.2336C58.0394 58.9687 58.586 58.5201 58.9706 57.9445C59.3552 57.3689 59.5604 56.6922 59.5604 56C59.5604 55.0717 59.1917 54.1815 58.5353 53.5251C57.8789 52.8687 56.9887 52.5 56.0604 52.5ZM45.5604 31.5C44.8682 31.5 44.1915 31.7053 43.6159 32.0899C43.0404 32.4744 42.5918 33.0211 42.3268 33.6606C42.0619 34.3001 41.9926 35.0039 42.1277 35.6828C42.2627 36.3617 42.5961 36.9854 43.0856 37.4749C43.575 37.9644 44.1987 38.2977 44.8776 38.4327C45.5565 38.5678 46.2603 38.4985 46.8998 38.2336C47.5394 37.9687 48.086 37.5201 48.4706 36.9445C48.8552 36.3689 49.0604 35.6922 49.0604 35C49.0604 34.0717 48.6917 33.1815 48.0353 32.5251C47.3789 31.8687 46.4887 31.5 45.5604 31.5ZM24.5604 31.5H14.0604C13.1322 31.5 12.2419 31.8687 11.5856 32.5251C10.9292 33.1815 10.5604 34.0717 10.5604 35C10.5604 35.9283 10.9292 36.8185 11.5856 37.4749C12.2419 38.1313 13.1322 38.5 14.0604 38.5H24.5604C25.4887 38.5 26.3789 38.1313 27.0353 37.4749C27.6917 36.8185 28.0604 35.9283 28.0604 35C28.0604 34.0717 27.6917 33.1815 27.0353 32.5251C26.3789 31.8687 25.4887 31.5 24.5604 31.5ZM56.0604 10.5C55.3682 10.5 54.6915 10.7053 54.1159 11.0899C53.5404 11.4744 53.0918 12.0211 52.8268 12.6606C52.5619 13.3001 52.4926 14.0039 52.6277 14.6828C52.7627 15.3617 53.0961 15.9854 53.5855 16.4749C54.075 16.9644 54.6987 17.2977 55.3776 17.4327C56.0565 17.5678 56.7603 17.4985 57.3998 17.2336C58.0394 16.9687 58.586 16.5201 58.9706 15.9445C59.3552 15.3689 59.5604 14.6922 59.5604 14C59.5604 13.0717 59.1917 12.1815 58.5353 11.5251C57.8789 10.8687 56.9887 10.5 56.0604 10.5ZM56.0604 31.5C55.3682 31.5 54.6915 31.7053 54.1159 32.0899C53.5404 32.4744 53.0918 33.0211 52.8268 33.6606C52.5619 34.3001 52.4926 35.0039 52.6277 35.6828C52.7627 36.3617 53.0961 36.9854 53.5855 37.4749C54.075 37.9644 54.6987 38.2977 55.3776 38.4327C56.0565 38.5678 56.7603 38.4985 57.3998 38.2336C58.0394 37.9687 58.586 37.5201 58.9706 36.9445C59.3552 36.3689 59.5604 35.6922 59.5604 35C59.5604 34.0717 59.1917 33.1815 58.5353 32.5251C57.8789 31.8687 56.9887 31.5 56.0604 31.5ZM70.0604 10.5C70.0604 7.71523 68.9542 5.04451 66.985 3.07538C65.0159 1.10625 62.3452 0 59.5604 0H10.5604C7.77565 0 5.10494 1.10625 3.1358 3.07538C1.16667 5.04451 0.0604248 7.71523 0.0604248 10.5V17.5C0.0758619 20.0902 1.04816 22.5833 2.79042 24.5C1.04816 26.4167 0.0758619 28.9098 0.0604248 31.5V38.5C0.0758619 41.0902 1.04816 43.5833 2.79042 45.5C1.04816 47.4167 0.0758619 49.9098 0.0604248 52.5V59.5C0.0604248 62.2848 1.16667 64.9555 3.1358 66.9246C5.10494 68.8938 7.77565 70 10.5604 70H59.5604C62.3452 70 65.0159 68.8938 66.985 66.9246C68.9542 64.9555 70.0604 62.2848 70.0604 59.5V52.5C70.045 49.9098 69.0727 47.4167 67.3304 45.5C69.0727 43.5833 70.045 41.0902 70.0604 38.5V31.5C70.045 28.9098 69.0727 26.4167 67.3304 24.5C69.0727 22.5833 70.045 20.0902 70.0604 17.5V10.5ZM63.0604 59.5C63.0604 60.4283 62.6917 61.3185 62.0353 61.9749C61.3789 62.6313 60.4887 63 59.5604 63H10.5604C9.63217 63 8.74193 62.6313 8.08555 61.9749C7.42917 61.3185 7.06042 60.4283 7.06042 59.5V52.5C7.06042 51.5717 7.42917 50.6815 8.08555 50.0251C8.74193 49.3687 9.63217 49 10.5604 49H59.5604C60.4887 49 61.3789 49.3687 62.0353 50.0251C62.6917 50.6815 63.0604 51.5717 63.0604 52.5V59.5ZM63.0604 38.5C63.0604 39.4283 62.6917 40.3185 62.0353 40.9749C61.3789 41.6313 60.4887 42 59.5604 42H10.5604C9.63217 42 8.74193 41.6313 8.08555 40.9749C7.42917 40.3185 7.06042 39.4283 7.06042 38.5V31.5C7.06042 30.5717 7.42917 29.6815 8.08555 29.0251C8.74193 28.3687 9.63217 28 10.5604 28H59.5604C60.4887 28 61.3789 28.3687 62.0353 29.0251C62.6917 29.6815 63.0604 30.5717 63.0604 31.5V38.5ZM63.0604 17.5C63.0604 18.4283 62.6917 19.3185 62.0353 19.9749C61.3789 20.6313 60.4887 21 59.5604 21H10.5604C9.63217 21 8.74193 20.6313 8.08555 19.9749C7.42917 19.3185 7.06042 18.4283 7.06042 17.5V10.5C7.06042 9.57174 7.42917 8.6815 8.08555 8.02513C8.74193 7.36875 9.63217 7 10.5604 7H59.5604C60.4887 7 61.3789 7.36875 62.0353 8.02513C62.6917 8.6815 63.0604 9.57174 63.0604 10.5V17.5ZM45.5604 10.5C44.8682 10.5 44.1915 10.7053 43.6159 11.0899C43.0404 11.4744 42.5918 12.0211 42.3268 12.6606C42.0619 13.3001 41.9926 14.0039 42.1277 14.6828C42.2627 15.3617 42.5961 15.9854 43.0856 16.4749C43.575 16.9644 44.1987 17.2977 44.8776 17.4327C45.5565 17.5678 46.2603 17.4985 46.8998 17.2336C47.5394 16.9687 48.086 16.5201 48.4706 15.9445C48.8552 15.3689 49.0604 14.6922 49.0604 14C49.0604 13.0717 48.6917 12.1815 48.0353 11.5251C47.3789 10.8687 46.4887 10.5 45.5604 10.5ZM24.5604 10.5H14.0604C13.1322 10.5 12.2419 10.8687 11.5856 11.5251C10.9292 12.1815 10.5604 13.0717 10.5604 14C10.5604 14.9283 10.9292 15.8185 11.5856 16.4749C12.2419 17.1313 13.1322 17.5 14.0604 17.5H24.5604C25.4887 17.5 26.3789 17.1313 27.0353 16.4749C27.6917 15.8185 28.0604 14.9283 28.0604 14C28.0604 13.0717 27.6917 12.1815 27.0353 11.5251C26.3789 10.8687 25.4887 10.5 24.5604 10.5Z" fill="white"/>
</svg>
