<svg width="70" height="70" viewBox="0 0 70 70" fill="none" xmlns="http://www.w3.org/2000/svg">
<path d="M35 0C15.6653 0 0 15.6653 0 35C0 54.3347 15.6653 70 35 70C54.3347 70 70 54.3347 70 35C70 15.6653 54.3347 0 35 0ZM52.1613 44.1875C52.8246 44.8508 52.8246 45.9234 52.1613 46.5867L46.5726 52.1613C45.9093 52.8246 44.8367 52.8246 44.1734 52.1613L35 42.9032L25.8125 52.1613C25.1492 52.8246 24.0766 52.8246 23.4133 52.1613L17.8387 46.5726C17.1754 45.9093 17.1754 44.8367 17.8387 44.1734L27.0968 35L17.8387 25.8125C17.1754 25.1492 17.1754 24.0766 17.8387 23.4133L23.4274 17.8246C24.0907 17.1613 25.1633 17.1613 25.8266 17.8246L35 27.0968L44.1875 17.8387C44.8508 17.1754 45.9234 17.1754 46.5867 17.8387L52.1754 23.4274C52.8387 24.0907 52.8387 25.1633 52.1754 25.8266L42.9032 35L52.1613 44.1875Z" fill="#F25858"/>
</svg>
