<svg width="66" height="53" viewBox="0 0 66 53" fill="none" xmlns="http://www.w3.org/2000/svg">
<path d="M18.2393 18.3945L8.55807 26.4505L18.2393 34.5065C18.8801 35.0398 19.2825 35.8053 19.3581 36.6349C19.4336 37.4644 19.176 38.2899 18.642 38.9298C18.108 39.5697 17.3413 39.9716 16.5106 40.047C15.6799 40.1224 14.8532 39.8652 14.2123 39.332L1.6317 28.8632C1.27749 28.5685 0.992511 28.1996 0.796943 27.7826C0.601374 27.3657 0.5 26.9109 0.5 26.4505C0.5 25.9901 0.601374 25.5353 0.796943 25.1184C0.992511 24.7014 1.27749 24.3325 1.6317 24.0378L14.2123 13.569C14.5296 13.305 14.8959 13.1059 15.2903 12.9833C15.6846 12.8606 16.0993 12.8167 16.5106 12.854C16.9219 12.8913 17.3219 13.0092 17.6876 13.2009C18.0533 13.3926 18.3776 13.6543 18.642 13.9712C18.9064 14.288 19.1057 14.6538 19.2286 15.0475C19.3515 15.4413 19.3955 15.8554 19.3581 16.2661C19.3207 16.6768 19.2026 17.0762 19.0106 17.4414C18.8187 17.8066 18.5566 18.1304 18.2393 18.3945ZM64.3683 24.0378L51.7877 13.569C51.4704 13.305 51.1041 13.1059 50.7097 12.9833C50.3154 12.8606 49.9007 12.8167 49.4894 12.854C49.0781 12.8913 48.6781 13.0092 48.3124 13.2009C47.9467 13.3926 47.6224 13.6543 47.358 13.9712C47.0936 14.288 46.8943 14.6538 46.7714 15.0475C46.6485 15.4413 46.6045 15.8554 46.6419 16.2661C46.6793 16.6768 46.7974 17.0762 46.9894 17.4414C47.1813 17.8066 47.4434 18.1304 47.7607 18.3945L57.4419 26.4505L47.7607 34.5065C47.4434 34.7706 47.1813 35.0944 46.9894 35.4596C46.7974 35.8248 46.6793 36.2241 46.6419 36.6349C46.5664 37.4644 46.824 38.2899 47.358 38.9298C47.892 39.5697 48.6587 39.9716 49.4894 40.047C49.9007 40.0843 50.3154 40.0404 50.7097 39.9177C51.1041 39.795 51.4704 39.596 51.7877 39.332L64.3683 28.8632C64.7225 28.5685 65.0075 28.1996 65.2031 27.7826C65.3986 27.3657 65.5 26.9109 65.5 26.4505C65.5 25.9901 65.3986 25.5353 65.2031 25.1184C65.0075 24.7014 64.7225 24.3325 64.3683 24.0378ZM42.462 0.467735C41.678 0.183237 40.813 0.221287 40.0572 0.573516C39.3013 0.925745 38.7165 1.56332 38.4313 2.34603L21.6571 48.4085C21.5157 48.7962 21.4522 49.2079 21.4702 49.6201C21.4882 50.0322 21.5873 50.4368 21.7619 50.8107C21.9366 51.1847 22.1833 51.5205 22.4879 51.7992C22.7926 52.0779 23.1493 52.2939 23.5376 52.4349C23.9258 52.5759 24.3382 52.6391 24.7509 52.6209C25.1637 52.6027 25.5688 52.5035 25.9432 52.3289C26.3175 52.1543 26.6538 51.9078 26.9327 51.6034C27.2116 51.299 27.4277 50.9428 27.5687 50.5549L44.3429 4.49243C44.484 4.10484 44.5473 3.69329 44.5292 3.28126C44.5111 2.86924 44.4118 2.46482 44.2372 2.09109C44.0625 1.71736 43.8159 1.38164 43.5113 1.1031C43.2067 0.824566 42.8501 0.608668 42.462 0.467735Z" fill="white"/>
</svg>
