<svg width="66" height="58" viewBox="0 0 66 58" fill="none" xmlns="http://www.w3.org/2000/svg">
<path d="M57.4559 36.1111H24.3753L25.1139 39.7222H55.4041C57.1421 39.7222 58.4302 41.3361 58.0451 43.0308L57.4225 45.7703C59.5317 46.7941 60.9861 48.9563 60.9861 51.4583C60.9861 54.9794 58.1064 57.8279 54.5737 57.7771C51.2082 57.7287 48.4404 54.9976 48.3496 51.6329C48.2999 49.795 49.0363 48.1291 50.2458 46.9443H26.5876C27.7586 48.0915 28.4861 49.6896 28.4861 51.4583C28.4861 55.0484 25.4925 57.9393 21.8654 57.7708C18.6447 57.6213 16.0254 55.019 15.8561 51.7993C15.7255 49.3128 17.0338 47.1212 19.0216 45.9779L11.0944 7.22222H3.20833C1.71254 7.22222 0.5 6.00968 0.5 4.51389V2.70833C0.5 1.21254 1.71254 0 3.20833 0H14.7784C16.065 0 17.174 0.905148 17.4318 2.16554L18.4662 7.22222H62.7906C64.5285 7.22222 65.8167 8.83605 65.4315 10.5308L60.0969 34.003C59.8167 35.2361 58.7205 36.1111 57.4559 36.1111ZM45.9807 21.6667H41.125V14.8958C41.125 14.148 40.5187 13.5417 39.7708 13.5417H37.0625C36.3147 13.5417 35.7083 14.148 35.7083 14.8958V21.6667H30.8526C29.6462 21.6667 29.042 23.1253 29.8951 23.9783L37.4592 31.5424C37.988 32.0712 38.8454 32.0712 39.3743 31.5424L46.9383 23.9783C47.7913 23.1253 47.1872 21.6667 45.9807 21.6667Z" fill="white"/>
</svg>
