<svg width="66" height="58" viewBox="0 0 66 58" fill="none" xmlns="http://www.w3.org/2000/svg">
<path d="M59.0508 12.8114H10.6562C9.53398 12.8114 8.625 11.9024 8.625 10.7802C8.625 9.65789 9.53398 8.7489 10.6562 8.7489H59.4062C60.5285 8.7489 61.4375 7.83992 61.4375 6.71765C61.4375 3.35212 58.7093 0.623901 55.3438 0.623901H8.625C4.13721 0.623901 0.5 4.26111 0.5 8.7489V49.3739C0.5 53.8617 4.13721 57.4989 8.625 57.4989H59.0508C62.608 57.4989 65.5 54.7656 65.5 51.4052V18.9052C65.5 15.5447 62.608 12.8114 59.0508 12.8114ZM53.3125 39.2177C51.0692 39.2177 49.25 37.3984 49.25 35.1552C49.25 32.9119 51.0692 31.0927 53.3125 31.0927C55.5558 31.0927 57.375 32.9119 57.375 35.1552C57.375 37.3984 55.5558 39.2177 53.3125 39.2177Z" fill="white"/>
</svg>
