<svg width="66" height="40" viewBox="0 0 66 40" fill="none" xmlns="http://www.w3.org/2000/svg">
<path d="M44.6492 0.270752H35.925C35.1125 0.270752 34.3305 0.57544 33.7313 1.12388L23.7477 10.2645C23.7375 10.2747 23.7273 10.295 23.7172 10.3051C22.0313 11.8895 22.0617 14.4184 23.5039 15.9926C24.7937 17.4043 27.5055 17.7801 29.2016 16.2668C29.2117 16.2567 29.232 16.2567 29.2422 16.2465L37.357 8.81216C38.0172 8.21294 39.0531 8.25356 39.6523 8.91372C40.2617 9.57388 40.2109 10.5997 39.5508 11.209L36.9 13.6364L51.6875 25.6411C51.982 25.8848 52.2461 26.1489 52.4898 26.4231V6.77075L46.9445 1.22544C46.3453 0.616065 45.5125 0.270752 44.6492 0.270752V0.270752ZM55.75 6.79106V29.5309C55.75 31.3286 57.2023 32.7809 59 32.7809H65.5V6.79106H55.75ZM60.625 29.5309C59.7312 29.5309 59 28.7997 59 27.9059C59 27.0122 59.7312 26.2809 60.625 26.2809C61.5188 26.2809 62.25 27.0122 62.25 27.9059C62.25 28.7997 61.5188 29.5309 60.625 29.5309ZM0.5 32.7707H7C8.79766 32.7707 10.25 31.3184 10.25 29.5207V6.79106H0.5V32.7707ZM5.375 26.2809C6.26875 26.2809 7 27.0122 7 27.9059C7 28.7997 6.26875 29.5309 5.375 29.5309C4.48125 29.5309 3.75 28.7997 3.75 27.9059C3.75 27.002 4.48125 26.2809 5.375 26.2809ZM49.6461 28.17L34.4828 15.8606L31.4359 18.6536C28.4195 21.4059 23.7984 21.1418 21.107 18.2067C18.375 15.2207 18.5883 10.5997 21.5539 7.87778L29.8617 0.270752H21.3508C20.4875 0.270752 19.6648 0.616065 19.0555 1.22544L13.5 6.77075V29.5106H15.3586L24.55 37.8286C27.3328 40.0934 31.4258 39.6668 33.6906 36.884L33.7109 36.8637L35.5289 38.4379C37.1437 39.7582 39.5305 39.5043 40.8406 37.8895L44.0297 33.9692L44.5781 34.4161C45.9695 35.5434 48.0211 35.3403 49.1484 33.9387L50.1133 32.7504C51.2508 31.3489 51.0375 29.3075 49.6461 28.17V28.17Z" fill="white"/>
</svg>
