<svg width="27" height="28" viewBox="0 0 27 28" fill="none" xmlns="http://www.w3.org/2000/svg">
<path d="M27 14.2778C27 6.82199 20.9558 0.777832 13.5 0.777832C6.04416 0.777832 0 6.82199 0 14.2778C0 21.7337 6.04416 27.7778 13.5 27.7778C20.9558 27.7778 27 21.7337 27 14.2778Z" fill="#5865F2"/>
<path d="M18.4228 9.8524C20.0137 12.2081 20.7994 14.8653 20.5057 17.9243C20.5045 17.9372 20.4978 17.9491 20.4872 17.9569C19.2824 18.8478 18.1152 19.3885 16.9643 19.7471C16.9553 19.7498 16.9457 19.7497 16.9368 19.7467C16.928 19.7436 16.9202 19.7379 16.9148 19.7302C16.6489 19.3577 16.4073 18.9649 16.1956 18.5524C16.1835 18.5281 16.1946 18.4988 16.2196 18.4893C16.6033 18.3437 16.9681 18.1692 17.3191 17.9626C17.3467 17.9463 17.3485 17.9064 17.3229 17.8872C17.2484 17.8315 17.1747 17.773 17.1041 17.7145C17.0909 17.7037 17.0731 17.7015 17.0581 17.7088C14.7797 18.7684 12.2838 18.7684 9.97854 17.7088C9.96356 17.7021 9.94578 17.7044 9.93293 17.715C9.86251 17.7735 9.78855 17.8315 9.71477 17.8872C9.68923 17.9064 9.69133 17.9463 9.71917 17.9626C10.0701 18.1653 10.435 18.3437 10.8181 18.49C10.8429 18.4995 10.8547 18.5281 10.8424 18.5524C10.6353 18.9654 10.3937 19.3582 10.1229 19.7308C10.1111 19.7458 10.0918 19.7528 10.0734 19.7471C8.928 19.3885 7.76073 18.8478 6.55593 17.9569C6.5459 17.9491 6.53868 17.9367 6.53762 17.9238C6.29216 15.2777 6.79242 12.5986 8.6186 9.85187C8.62303 9.84461 8.62972 9.83892 8.63745 9.83556C9.53604 9.42025 10.4987 9.11469 11.5049 8.94021C11.5232 8.93738 11.5415 8.94587 11.551 8.96221C11.6753 9.18387 11.8174 9.46814 11.9136 9.70045C12.9741 9.53729 14.0513 9.53729 15.134 9.70045C15.2301 9.47309 15.3673 9.18387 15.4911 8.96221C15.4955 8.9541 15.5023 8.94761 15.5106 8.94366C15.5189 8.93971 15.5282 8.9385 15.5372 8.94021C16.5439 9.11522 17.5066 9.42078 18.4045 9.83556C18.4124 9.83892 18.4189 9.84461 18.4228 9.8524ZM12.4527 14.8834C12.4638 14.1011 11.8975 13.4539 11.1867 13.4539C10.4816 13.4539 9.92078 14.0955 9.92078 14.8834C9.92078 15.6711 10.4927 16.3127 11.1867 16.3127C11.8919 16.3127 12.4527 15.6711 12.4527 14.8834ZM17.1335 14.8834C17.1446 14.1011 16.5783 13.4539 15.8676 13.4539C15.1623 13.4539 14.6015 14.0955 14.6015 14.8834C14.6015 15.6711 15.1734 16.3127 15.8676 16.3127C16.5783 16.3127 17.1335 15.6711 17.1335 14.8834Z" fill="white"/>
</svg>
