<svg width="29" height="29" viewBox="0 0 29 29" fill="none" xmlns="http://www.w3.org/2000/svg">
<path d="M14.6863 0.777832C22.2662 0.777832 28.4109 6.92256 28.4109 14.5018C28.4109 22.0817 22.2662 28.2271 14.6863 28.2271C7.107 28.2271 0.96228 22.0817 0.96228 14.5018C0.96228 6.92256 7.107 0.777832 14.6863 0.777832Z" fill="#FEFEFE"/>
<path d="M10.0877 9.65391V1.56791C7.46723 2.50018 5.21393 4.2068 3.60181 6.41L10.0877 9.65391ZM10.0877 19.3508V27.4368C7.4685 26.5045 5.21584 24.7991 3.60244 22.5947L10.0877 19.3508ZM19.255 19.3508V27.4475C21.8838 26.5197 24.144 24.8131 25.7625 22.6061L19.255 19.3508ZM19.255 9.65391V1.55713C21.8838 2.48496 24.1453 4.19158 25.7631 6.39921L19.255 9.65391Z" fill="#012169"/>
<path d="M26.8819 19.0788H23.8308L26.9605 20.6466C27.1641 20.24 27.348 19.8221 27.5116 19.394L26.8819 19.0788ZM26.2895 7.17116L20.8088 9.91913H23.8599L26.9643 8.36535C26.7595 7.95566 26.5337 7.55675 26.2895 7.17116ZM11.9218 17.246V27.9481C12.8148 28.1301 13.7394 28.2271 14.6863 28.2271C15.6224 28.2271 16.5375 28.1326 17.4216 27.9544V17.246H28.1357C28.3152 16.3594 28.4109 15.4423 28.4109 14.5018C28.4109 13.5581 28.3152 12.636 28.1338 11.745H17.4216V1.05117C16.5212 0.869168 15.6049 0.7776 14.6863 0.777832C13.7394 0.777832 12.8148 0.875499 11.9218 1.05688V11.745H1.23942C1.05487 12.6523 0.962018 13.5759 0.962281 14.5018C0.962281 15.4423 1.05804 16.3594 1.23752 17.246H11.9218ZM2.45391 9.92611H5.50503L2.40444 8.3736C2.2015 8.78012 2.01695 9.19932 1.85396 9.62677L2.45391 9.92611ZM8.53395 19.0858H5.48283L2.40254 20.6275C2.60828 21.039 2.83455 21.4399 3.0805 21.8287L8.56185 19.0858H8.53395Z" fill="#C8102E"/>
</svg>
