<svg width="24" height="24" viewBox="0 0 24 24" fill="none" xmlns="http://www.w3.org/2000/svg">
<path d="M12.6941 24C12.1414 24.0013 11.5894 23.964 11.042 23.8888C8.65992 23.5674 6.42664 22.5466 4.6249 20.9554C2.8234 19.3641 1.53429 17.2741 0.921192 14.9496C0.30809 12.6252 0.398282 10.1716 1.18065 7.89858C1.96284 5.62552 3.4021 3.63606 5.31575 2.18134C6.64418 1.15935 8.17207 0.427438 9.80086 0.0328715C9.95619 -0.0137467 10.122 -0.0106897 10.2754 0.0414692C10.4289 0.0936281 10.5622 0.192404 10.6568 0.323853C10.7498 0.444605 10.8058 0.589808 10.8181 0.741701C10.8301 0.893595 10.798 1.04587 10.7254 1.1798C9.73152 2.97518 9.2833 5.02163 9.43517 7.06822C9.58725 9.11466 10.3331 11.0722 11.5813 12.7008C12.8263 14.3306 14.5187 15.5625 16.452 16.2465C18.3853 16.9305 20.4761 17.0369 22.4691 16.5526C22.6244 16.5073 22.7899 16.5109 22.9431 16.5631C23.0961 16.6151 23.2295 16.7131 23.325 16.8436C23.4148 16.966 23.4681 17.1114 23.4786 17.2629C23.4893 17.4145 23.4569 17.5658 23.385 17.6995C22.3374 19.6168 20.7906 21.2146 18.9083 22.3237C17.0262 23.4328 14.8789 24.0119 12.6941 23.9993L12.6941 24ZM8.52556 2.16454C7.72655 2.49908 6.97302 2.93337 6.28289 3.45707C4.80582 4.57493 3.64931 6.06237 2.92978 7.76927C2.21005 9.47637 1.95288 11.3427 2.18388 13.1808C2.41507 15.019 3.12621 16.7636 4.24578 18.2397C5.36712 19.7131 6.85662 20.8656 8.56469 21.5808C10.2728 22.2961 12.139 22.5489 13.9757 22.314C15.8126 22.079 17.5551 21.3647 19.0283 20.2426C19.7126 19.7235 20.328 19.1195 20.8599 18.4451C18.1442 18.6617 15.4347 17.9573 13.1687 16.4452C10.9025 14.933 9.21184 12.7014 8.36944 10.1107C7.52704 7.51978 7.58226 4.72074 8.52592 2.16513L8.52556 2.16454Z" fill="white"/>
</svg>
