<svg width="28" height="29" viewBox="0 0 28 29" fill="none" xmlns="http://www.w3.org/2000/svg">
<path d="M27.9498 14.5175H0.50019L0.5 14.5028C0.5 6.92262 6.64472 0.777832 14.225 0.777832C21.805 0.777832 27.95 6.92262 27.95 14.5028L27.9498 14.5175Z" fill="white"/>
<path d="M0.500183 14.5176H27.9498C27.9419 22.0909 21.8002 28.2279 14.225 28.2279C6.6496 28.2279 0.508047 22.0909 0.500183 14.5176Z" fill="#D52B1E"/>
<path d="M1.28923 9.90771H27.1608C27.6712 11.3444 27.95 12.8908 27.95 14.5027C27.95 16.1254 27.6676 17.6821 27.1505 19.1271H1.2995C0.782355 17.6821 0.5 16.1254 0.5 14.5027C0.5 12.8908 0.778804 11.3444 1.28923 9.90771Z" fill="#0039A6"/>
</svg>
