<svg width="33" height="32" viewBox="0 0 33 32" fill="none" xmlns="http://www.w3.org/2000/svg">
<path d="M16.5194 0C17.6241 0 18.5194 0.895543 18.5194 2C18.5194 3.10446 17.6241 4 16.5194 4C15.4147 4 14.5194 3.10446 14.5194 2C14.5194 0.895543 15.4147 0 16.5194 0Z" fill="white"/>
<path fill-rule="evenodd" clip-rule="evenodd" d="M6.51941 16C6.51941 10.4773 10.9967 6 16.5194 6C22.0422 6 26.5194 10.4773 26.5194 16C26.5194 21.5227 22.0422 26 16.5194 26C10.9967 26 6.51941 21.5227 6.51941 16ZM16.5194 8C12.1011 8 8.51941 11.5817 8.51941 16C8.51941 20.4183 12.1011 24 16.5194 24C20.9377 24 24.5194 20.4183 24.5194 16C24.5194 11.5817 20.9377 8 16.5194 8Z" fill="white"/>
<path d="M32.5194 16C32.5194 17.1047 31.6241 18 30.5194 18C29.4147 18 28.5194 17.1047 28.5194 16C28.5194 14.8953 29.4147 14 30.5194 14C31.6241 14 32.5194 14.8953 32.5194 16Z" fill="white"/>
<path d="M2.51941 18C3.62387 18 4.51941 17.1047 4.51941 16C4.51941 14.8953 3.62387 14 2.51941 14C1.41495 14 0.519409 14.8953 0.519409 16C0.519409 17.1047 1.41495 18 2.51941 18Z" fill="white"/>
<path d="M18.5194 30C18.5194 28.8953 17.6241 28 16.5194 28C15.4147 28 14.5194 28.8953 14.5194 30C14.5194 31.1047 15.4147 32 16.5194 32C17.6241 32 18.5194 31.1047 18.5194 30Z" fill="white"/>
<path d="M27.8331 4.68641C28.6144 5.46744 28.6144 6.73372 27.8331 7.51475C27.0521 8.29578 25.7858 8.29578 25.0048 7.51475C24.2237 6.73372 24.2237 5.46744 25.0048 4.68641C25.7858 3.90515 27.0521 3.90515 27.8331 4.68641Z" fill="white"/>
<path d="M8.03428 27.3137C8.81531 26.5327 8.81531 25.2664 8.03428 24.4854C7.25325 23.7043 5.98697 23.7043 5.20594 24.4854C4.42468 25.2664 4.42468 26.5327 5.20594 27.3137C5.98697 28.095 7.25325 28.095 8.03428 27.3137Z" fill="white"/>
<path d="M5.20569 4.68641C5.98672 3.90515 7.25301 3.90515 8.03404 4.68641C8.81507 5.46744 8.81507 6.73372 8.03404 7.51475C7.25301 8.29578 5.98672 8.29578 5.20569 7.51475C4.42444 6.73372 4.42444 5.46744 5.20569 4.68641Z" fill="white"/>
<path d="M27.8331 24.4851C27.0521 23.7041 25.7858 23.7041 25.0048 24.4851C24.2237 25.2662 24.2237 26.5324 25.0048 27.3135C25.7858 28.0947 27.0521 28.0947 27.8331 27.3135C28.6144 26.5324 28.6144 25.2662 27.8331 24.4851Z" fill="white"/>
</svg>
