<svg width="27" height="28" viewBox="0 0 27 28" fill="none" xmlns="http://www.w3.org/2000/svg">
<path d="M13.5 0.777832C6.0441 0.777832 0 6.82193 0 14.2778C0 21.7337 6.0441 27.7778 13.5 27.7778C20.9559 27.7778 27 21.7337 27 14.2778C27 6.82193 20.9559 0.777832 13.5 0.777832Z" fill="#40B3E0"/>
<path d="M20.0689 8.5437L17.6576 20.7008C17.6576 20.7008 17.3205 21.5439 16.3931 21.1392L10.8287 16.8732L8.80543 15.8953L5.39942 14.7486C5.39942 14.7486 4.87672 14.5632 4.8261 14.1585C4.77558 13.7539 5.4163 13.5347 5.4163 13.5347L18.956 8.22328C18.956 8.22328 20.0689 7.73433 20.0689 8.5437Z" fill="white"/>
<path d="M10.4011 20.5641C10.4011 20.5641 10.2387 20.549 10.0363 19.9081C9.83403 19.2674 8.8055 15.8952 8.8055 15.8952L16.9832 10.7019C16.9832 10.7019 17.4554 10.4152 17.4385 10.7019C17.4385 10.7019 17.5228 10.7524 17.2699 10.9884C17.017 11.2246 10.8457 16.7719 10.8457 16.7719" fill="#D2E5F1"/>
<path d="M12.9623 18.5089L10.7613 20.5156C10.7613 20.5156 10.5893 20.6461 10.4011 20.5643L10.8225 16.8369" fill="#B5CFE4"/>
</svg>
